<?xml version="1.0" encoding="UTF-8"?><svg id="Layer_1" xmlns="http://www.w3.org/2000/svg" viewBox="0 0 100 100"><defs><style>.cls-1{stroke-width:0px;}</style></defs><path class="cls-1" d="m89.56,28.09c-2.42-3.76-6.27-5.83-9.77-8.24,0,0-1.25-.82-1.25-.82-4.06-2.92-8.36-1.63-11.97,1.07-4.7-3.08-10.86-4.33-16.38-4.22-5.58.03-11.79,1.06-16.56,4.3-1.97-1.5-4.21-2.57-6.8-2.82-1.87-.14-3.83.55-5.33,1.66,0,0-1.25.82-1.25.82-2.62,1.73-5.12,3.3-7.52,5.51-1.79,1.7-3.63,4.07-2.99,6.9,1.35,4.22,4.82,7.13,8.22,9.72-2.53,7.03-3.79,14.63-2.86,22.1,1.17,9.62,9.27,20.82,20.15,18.07.82-.17,1.59-.44,2.34-.78,3.5,1.76,7.86,2.73,12.45,2.73s8.97-.97,12.47-2.74c2.68,1.2,5.76,1.5,8.63.87,8.12-2.05,12.74-10.44,13.88-18.15.78-7.44-.2-15.12-2.86-22.14,3.93-3.02,10.61-8.54,7.43-13.86Zm-39.54,52.77c-3.34,0-6.53-.56-9.25-1.61,2.34-2.12,3.97-5.08,4.63-8.12.83-2.96,1.18-6.93,3.31-9.07,4.08-2.59,5.12,6.52,5.9,9.08.72,3.01,2.16,5.9,4.52,8.06.03.02.06.04.08.07-2.7,1.03-5.87,1.59-9.2,1.59Zm31.06-41.49c-1.23-2.73-2.71-5.34-4.47-7.76,0,0-2,1.6-2,1.6,1.95,2.81,3.51,6.18,4.64,9.46,2.2,6.66,3.26,13.92,2.32,20.89-1.03,6.28-4.9,13.42-11.3,15.04-4.66,1.07-9.51-1.53-11.17-6.04-1.35-3.49-1.44-7.13-3.17-10.64-1.59-3.78-6.27-5.65-9.68-2.82-2.53,2.21-3.2,5.61-3.92,8.47,0,0-.62,2.67-.62,2.67-1.11,5.7-6.12,9.67-11.95,8.38-2.99-.68-5.68-2.89-7.59-5.63-6.07-8.8-4.46-20.66-1.41-30.33,1.12-3.28,2.69-6.65,4.67-9.44,0,0-2-1.6-2-1.6-1.86,2.46-3.26,5.05-4.45,7.79-1.13-1.1-2.24-2.26-3.2-3.46-1.03-1.31-2.18-2.81-2.57-4.38-.13-1.28,1.08-2.46,2.09-3.4,1.36-1.19,2.95-2.32,4.59-3.41.82-.54,2.95-1.97,3.74-2.5,4.74-3.66,10.83,2.82,14.02,6.2,0,0,2.07-1.5,2.07-1.5-1.14-1.62-2.4-3.27-3.84-4.74,2.32-1.32,4.95-2.18,7.6-2.58,6.57-.97,14.74-.79,20.77,2.48-1.56,1.54-2.91,3.25-3.95,4.84,0,0,2.07,1.5,2.07,1.5,3.03-3.21,8.8-9.35,13.42-6.6.37.22,1.46.99,1.85,1.24,2.28,1.53,5.11,3.32,7.08,5.06,1.01.94,2.22,2.12,2.09,3.4-.11.61-.57,1.53-.95,2.14-1.3,2.07-3.02,3.95-4.8,5.68Z"/><path class="cls-1" d="m50.02,49.9c-5.01,0-6.17,1.71-6.17,3.19,0,1.16,1.18,2.95,6.17,2.95s6.17-1.79,6.17-2.95c0-1.48-1.16-3.19-6.17-3.19Z"/><path class="cls-1" d="m72.67,49.33c.08-.11.16-.22.23-.33.07-.1.13-.21.19-.31.07-.11.13-.22.19-.33.06-.12.12-.24.17-.36.05-.11.1-.22.15-.33.05-.13.1-.27.15-.4.04-.11.08-.21.11-.32.05-.15.08-.3.12-.46.02-.1.05-.2.07-.3.04-.18.06-.36.08-.55.01-.08.03-.16.03-.24.03-.27.04-.53.04-.81,0-1.98-.72-3.79-1.9-5.2-1.49-1.77-3.71-2.9-6.2-2.9-.56,0-1.1.06-1.63.16-3.69.76-6.47,4.02-6.47,7.93,0,.05,0,.1,0,.15,0,.23.01.46.04.69,0,0,0,0,0,0-4.95-2.04-10.8-2.07-16.62.24.05-.35.08-.71.08-1.08h0c0-4.46-3.63-8.1-8.09-8.1-.28,0-.55.01-.83.04-3.16.32-5.78,2.48-6.8,5.38-.05.16-.11.31-.15.47-.12.41-.2.83-.25,1.26-.04.31-.06.63-.06.95h0c0,.28.01.55.04.82,0,.1.03.19.04.29.02.17.04.34.08.51.02.12.06.24.09.36.03.14.06.28.11.41.04.14.1.28.15.42.04.11.07.22.12.32.07.16.14.3.22.45.04.08.08.17.12.25.09.16.19.32.29.48.04.06.07.12.11.18.12.17.24.34.37.5.03.04.06.08.09.12.14.17.29.34.45.5.02.02.04.05.06.07.17.17.35.34.53.49,0,0,.02.02.03.03.19.16.4.32.61.46,0,0,0,0,0,0,1.26.88,2.79,1.4,4.43,1.43,0,0,0,0,0,0-2.83,4.29-4.24,9.63-4.38,14.71,0,0,2.56.1,2.56.1.63-4.93,2.37-10.2,5.6-14.02,4.72-5.83,13.45-6.98,20.14-4.27,7.1,2.98,10.43,11.06,11.4,18.28l2.55-.1c-.04-2.93-.54-5.66-1.38-8.44-.7-2.36-1.7-4.46-2.93-6.3,0,0,0,0,0,0,.23-.02.46-.05.69-.09.03,0,.06,0,.09-.01.21-.04.41-.09.62-.14.05-.01.09-.02.14-.04.19-.05.37-.12.56-.19.06-.02.11-.04.17-.06.17-.07.34-.14.51-.22.06-.03.13-.06.19-.09.16-.08.31-.17.46-.26.07-.04.14-.08.2-.12.14-.09.28-.18.41-.28.07-.05.14-.1.21-.16.12-.1.25-.2.37-.3.07-.06.14-.13.21-.2.11-.1.22-.21.32-.32.07-.08.14-.15.21-.23.09-.11.19-.22.28-.33.07-.09.14-.18.2-.27Zm-43.37-1.77c-.19-.27-.36-.56-.5-.86,0-.01-.01-.02-.02-.03-.14-.31-.25-.64-.33-.99,0,0,0,0,0,0l3.13-3.13c.38-.38,1-.38,1.38,0l2.08,2.08,2.72-2.72c.38.61.62,1.29.72,2.03l-2.76,2.76c-.38.38-1,.38-1.38,0l-2.08-2.08-2.97,2.97s0,0,0,0Zm35.65-2.96l-2.95,2.95c-.07-.1-.15-.21-.21-.32-.08-.13-.16-.26-.23-.39-.06-.12-.11-.24-.16-.36-.08-.2-.15-.4-.2-.61-.02-.07-.04-.14-.05-.21l3.12-3.12c.38-.38,1-.38,1.38,0l2.08,2.08,2.72-2.72c.38.61.62,1.29.72,2.03l-2.76,2.76c-.38.38-1,.38-1.38,0l-2.08-2.08Z"/></svg>