<?xml version="1.0" encoding="UTF-8"?><svg id="Layer_1" xmlns="http://www.w3.org/2000/svg" viewBox="0 0 100 100"><defs><style>.cls-1{stroke-width:0px;}</style></defs><circle class="cls-1" cx="66.12" cy="44.59" r="2.48"/><circle class="cls-1" cx="33.44" cy="44.59" r="2.48"/><path class="cls-1" d="m89.56,28.09c-2.42-3.76-6.27-5.83-9.77-8.24,0,0-1.25-.82-1.25-.82-4.06-2.92-8.36-1.63-11.97,1.07-4.7-3.08-10.86-4.33-16.38-4.22-5.58.03-11.79,1.06-16.56,4.3-1.97-1.5-4.21-2.57-6.8-2.82-1.87-.14-3.83.55-5.33,1.66,0,0-1.25.82-1.25.82-2.62,1.73-5.12,3.3-7.52,5.51-1.79,1.7-3.63,4.07-2.99,6.9,1.35,4.22,4.82,7.13,8.22,9.72-2.53,7.03-3.79,14.63-2.86,22.1,1.17,9.62,9.27,20.82,20.15,18.07.82-.17,1.59-.44,2.34-.78,3.5,1.76,7.86,2.73,12.45,2.73s8.97-.97,12.47-2.74c2.68,1.2,5.76,1.5,8.63.87,8.12-2.05,12.74-10.44,13.88-18.15.78-7.44-.2-15.12-2.86-22.14,3.93-3.02,10.61-8.54,7.43-13.86Zm-39.54,52.77c-3.34,0-6.53-.56-9.25-1.61,2.34-2.12,3.97-5.08,4.63-8.12.83-2.96,1.18-6.93,3.31-9.07,4.08-2.59,5.12,6.52,5.9,9.08.72,3.01,2.16,5.9,4.52,8.06.03.02.06.04.08.07-2.7,1.03-5.87,1.59-9.2,1.59Zm31.06-41.49c-1.23-2.73-2.71-5.34-4.47-7.76,0,0-2,1.6-2,1.6,1.95,2.81,3.51,6.18,4.64,9.46,2.2,6.66,3.26,13.92,2.32,20.89-1.03,6.28-4.9,13.42-11.3,15.04-4.66,1.07-9.51-1.53-11.17-6.04-1.35-3.49-1.44-7.13-3.17-10.64-1.59-3.78-6.27-5.65-9.68-2.82-2.53,2.21-3.2,5.61-3.92,8.47,0,0-.62,2.67-.62,2.67-1.11,5.7-6.12,9.67-11.95,8.38-2.99-.68-5.68-2.89-7.59-5.63-6.07-8.8-4.46-20.66-1.41-30.33,1.12-3.28,2.69-6.65,4.67-9.44,0,0-2-1.6-2-1.6-1.86,2.46-3.26,5.05-4.45,7.79-1.13-1.1-2.24-2.26-3.2-3.46-1.03-1.31-2.18-2.81-2.57-4.38-.13-1.28,1.08-2.46,2.09-3.4,1.36-1.19,2.95-2.32,4.59-3.41.82-.54,2.95-1.97,3.74-2.5,4.74-3.66,10.83,2.82,14.02,6.2,0,0,2.07-1.5,2.07-1.5-1.14-1.62-2.4-3.27-3.84-4.74,2.32-1.32,4.95-2.18,7.6-2.58,6.57-.97,14.74-.79,20.77,2.48-1.56,1.54-2.91,3.25-3.95,4.84,0,0,2.07,1.5,2.07,1.5,3.03-3.21,8.8-9.35,13.42-6.6.37.22,1.46.99,1.85,1.24,2.28,1.53,5.11,3.32,7.08,5.06,1.01.94,2.22,2.12,2.09,3.4-.11.61-.57,1.53-.95,2.14-1.3,2.07-3.02,3.95-4.8,5.68Z"/><path class="cls-1" d="m50.02,49.9c-5.01,0-6.17,1.71-6.17,3.19,0,1.16,1.18,2.95,6.17,2.95s6.17-1.79,6.17-2.95c0-1.48-1.16-3.19-6.17-3.19Z"/><path class="cls-1" d="m74.21,44.59c0-4.46-3.63-8.1-8.1-8.1s-8.1,3.63-8.1,8.1c0,.28.02.56.04.84-4.95-2.04-10.8-2.07-16.62.24.05-.35.08-.71.08-1.08,0-4.46-3.63-8.1-8.1-8.1s-8.09,3.63-8.09,8.1,3.55,8,7.94,8.09c-2.83,4.29-4.24,9.63-4.38,14.71,0,0,2.56.1,2.56.1.63-4.93,2.37-10.2,5.6-14.02,4.72-5.83,13.45-6.98,20.14-4.27,7.1,2.98,10.43,11.06,11.4,18.28l2.55-.1c-.04-2.93-.54-5.66-1.38-8.44-.7-2.36-1.7-4.46-2.93-6.3,4.13-.36,7.39-3.84,7.39-8.06Zm-40.78,5.11h0s-.05,0-.08,0c-2.79-.04-5.03-2.31-5.03-5.1s2.25-5.06,5.03-5.1c.03,0,.05,0,.08,0h0c2.82,0,5.11,2.29,5.11,5.11s-2.29,5.11-5.11,5.11Zm32.68,0c-.29,0-.58-.04-.86-.09-.1-.02-.2-.03-.3-.06-.2-.05-.4-.11-.59-.18-1.16-.42-2.11-1.25-2.71-2.32-.03-.04-.05-.09-.07-.13-.1-.19-.19-.38-.26-.58-.05-.12-.08-.25-.12-.37-.04-.15-.09-.3-.12-.45-.06-.3-.09-.61-.09-.93,0-2.82,2.29-5.11,5.11-5.11s5.11,2.29,5.11,5.11-2.29,5.11-5.11,5.11Z"/></svg>